<?xml version="1.0" standalone="no"?>
<!DOCTYPE svg PUBLIC "-//W3C//DTD SVG 20010904//EN"
 "http://www.w3.org/TR/2001/REC-SVG-20010904/DTD/svg10.dtd">
<svg version="1.0" xmlns="http://www.w3.org/2000/svg"
 width="400.000000pt" height="400.000000pt" viewBox="0 0 400.000000 400.000000"
 preserveAspectRatio="xMidYMid meet">
<metadata>
Created by potrace 1.14, written by Peter Selinger 2001-2017
</metadata>
<g transform="translate(0.000000,400.000000) scale(0.100000,-0.100000)"
fill="#000000" stroke="none">
<path d="M3318 3993 c128 -2 335 -2 460 0 125 1 20 2 -233 2 -253 0 -355 -1
-227 -2z"/>
<path d="M2000 3258 c-41 -4 -118 -9 -170 -13 -52 -3 -115 -7 -140 -9 -25 -3
-94 -7 -155 -11 -60 -4 -128 -8 -150 -10 -22 -1 -96 -6 -165 -10 -69 -4 -127
-9 -129 -11 -6 -5 5 -305 15 -379 2 -22 6 -85 7 -140 3 -106 8 -125 35 -125
15 -1 15 -2 1 -10 -9 -5 -31 -12 -50 -15 -130 -23 -232 -52 -225 -64 2 -3 7
-60 10 -125 4 -66 9 -123 11 -126 2 -3 5 -44 6 -91 1 -46 6 -129 11 -184 11
-121 14 -195 9 -189 -2 2 -9 -1 -16 -6 -6 -5 -29 -12 -51 -16 -21 -3 -47 -10
-57 -16 -10 -5 -21 -7 -24 -4 -4 3 -12 1 -20 -5 -7 -6 -13 -9 -13 -6 0 2 -30
-3 -67 -13 l-68 -18 0 -38 c0 -22 3 -61 7 -89 3 -27 9 -99 13 -160 3 -60 9
-113 11 -117 6 -9 15 -146 18 -253 l1 -59 81 -41 c45 -22 92 -45 105 -51 13
-6 130 -65 259 -131 546 -279 874 -443 886 -443 7 0 57 21 111 47 54 25 100
46 103 45 3 0 42 19 88 44 46 24 88 44 94 44 5 0 23 9 39 21 16 11 29 18 29
14 0 -3 17 3 38 14 20 10 62 31 92 44 140 63 183 83 295 137 66 32 143 68 170
80 28 13 102 47 165 78 63 30 118 55 122 54 12 -3 33 31 34 57 1 14 3 26 4 26
1 0 4 34 6 75 3 41 7 91 9 110 3 19 7 62 9 95 3 33 7 83 10 110 24 243 25 266
9 271 -7 2 -21 7 -30 11 -10 4 -25 7 -33 8 -8 1 -53 12 -100 25 -47 12 -89 23
-95 24 -5 1 -42 12 -80 24 l-70 22 7 98 c5 53 10 149 13 212 3 63 7 135 9 160
3 25 7 97 9 161 l5 117 -36 6 c-21 3 -41 5 -46 5 -15 -1 -26 25 -21 51 3 14 7
81 10 150 4 123 11 229 21 342 4 56 4 58 -23 64 -16 3 -44 10 -63 15 -65 15
-95 21 -120 23 -14 0 -28 4 -31 8 -5 8 -40 15 -119 24 -41 4 -80 12 -105 21
-12 4 -97 22 -140 29 -16 3 -37 8 -45 12 -20 8 -238 9 -330 0z"/>
</g>
</svg>
